<svg xmlns="http://www.w3.org/2000/svg" viewBox="0 0 36 36" fill="none">
  <g clip-path="url(#clip0_126_702)">
    <path d="M34.7261 21.0053C34.7148 21.0687 34.7064 21.1322 34.6952 21.1956L34.6333 20.8319C34.667 20.8897 34.6952 20.9475 34.7261 21.0053C34.9127 19.9864 35.0068 18.9526 35.0073 17.9167C35.0098 15.6782 34.5718 13.4612 33.7185 11.3926C32.8652 9.32399 31.6134 7.44434 30.0346 5.86123C28.4559 4.27812 26.5812 3.02262 24.5179 2.16659C22.4545 1.31056 20.2431 0.870797 18.01 0.872466C16.9299 0.871882 15.8521 0.973834 14.7911 1.17695H14.7827C14.8431 1.20797 14.9022 1.23616 14.9613 1.26858L14.6027 1.2122L14.7827 1.17695C12.867 0.154929 10.6729 -0.218552 8.52799 0.112274C6.38312 0.443101 4.40252 1.46049 2.88192 3.01253C1.36132 4.56457 0.382297 6.56801 0.09102 8.72371C-0.200257 10.8794 0.21184 13.0717 1.26578 14.9733C1.27703 14.9113 1.28407 14.8493 1.29672 14.7873L1.3586 15.1453C1.32625 15.0889 1.29813 15.0311 1.26578 14.9733C1.09672 15.9434 1.01109 16.9263 1.00985 17.9111C1.00855 20.1496 1.44735 22.3665 2.30116 24.4349C3.15497 26.5034 4.40706 28.3829 5.98585 29.9661C7.56464 31.5492 9.4392 32.805 11.5024 33.6615C13.5655 34.5181 15.7769 34.9587 18.01 34.9581C19.0082 34.9569 20.0043 34.8682 20.987 34.6931C20.9308 34.6607 20.8717 34.6311 20.8141 34.5973L21.1769 34.6621C21.115 34.6734 21.0517 34.6804 20.987 34.6931C22.8966 35.7766 25.1073 36.2044 27.282 35.9113C29.4567 35.6182 31.4762 34.6203 33.0325 33.0698C34.5889 31.5192 35.5968 29.5011 35.9025 27.3229C36.2083 25.1448 35.7951 22.9262 34.7261 21.0053ZM18.0775 28.3525C12.0391 28.3525 9.33626 25.3767 9.33626 23.1452C9.33626 22.0019 10.18 21.1998 11.3416 21.1998C13.9248 21.1998 13.2555 24.9199 18.0775 24.9199C20.5469 24.9199 21.9095 23.5751 21.9095 22.2007C21.9095 21.3732 21.5031 20.4569 19.8775 20.0552L14.5056 18.7118C10.18 17.6235 9.39391 15.2792 9.39391 13.0731C9.39391 8.49734 13.6914 6.77896 17.7273 6.77896C21.4455 6.77896 25.8288 8.83848 25.8288 11.5845C25.8288 12.7602 24.812 13.4438 23.6519 13.4438C21.4455 13.4438 21.8519 10.3835 17.4081 10.3835C15.2045 10.3835 13.9825 11.3843 13.9825 12.8166C13.9825 14.2488 15.7234 14.7027 17.2366 15.048L21.212 15.9319C25.5714 16.9046 26.6711 19.4561 26.6711 21.8525C26.6711 25.5754 23.8248 28.3525 18.0775 28.3525ZM20.8141 34.5973C20.8717 34.6311 20.9308 34.6607 20.987 34.6931C21.0517 34.6804 21.115 34.6734 21.1769 34.6621L20.8141 34.5973ZM34.6952 21.1956C34.7064 21.1322 34.7148 21.0687 34.7261 21.0053C34.6952 20.9475 34.667 20.8897 34.6333 20.8319L34.6952 21.1956ZM1.29672 14.7929C1.28407 14.8549 1.27703 14.917 1.26578 14.979C1.29813 15.0368 1.32625 15.0946 1.3586 15.151L1.29672 14.7929ZM14.9613 1.27422C14.9022 1.2418 14.8431 1.2136 14.7827 1.18259L14.6027 1.21783L14.9613 1.27422Z" />
  </g>
</svg>
