<svg xmlns="http://www.w3.org/2000/svg" viewBox="0 0 36 36" fill="none">
  <path fill-rule="evenodd" clip-rule="evenodd" d="M18 0C14.4399 0 10.9598 1.05568 7.99975 3.03355C5.03966 5.01141 2.73255 7.82263 1.37018 11.1117C0.00779772 14.4008 -0.34866 18.02 0.345874 21.5116C1.04041 25.0033 2.75474 28.2106 5.27209 30.7279C7.78943 33.2453 10.9967 34.9596 14.4884 35.6541C17.98 36.3487 21.5992 35.9922 24.8883 34.6298C28.1774 33.2674 30.9886 30.9603 32.9665 28.0003C34.9443 25.0402 36 21.5601 36 18C36 13.2261 34.1036 8.64773 30.7279 5.27208C27.3523 1.89642 22.7739 0 18 0ZM26.344 12.2424C26.074 15.0845 24.9016 21.9955 24.3047 25.1834C24.0537 26.5334 23.5563 26.9858 23.0755 27.0284C22.0287 27.1255 21.2353 26.3392 20.2334 25.6737C18.649 24.6363 17.7537 23.9897 16.2071 22.976C14.4284 21.806 15.5819 21.1618 16.5932 20.1103C16.8584 19.8332 21.465 15.6458 21.5669 15.2645C21.5783 15.2086 21.5765 15.1508 21.5617 15.0957C21.5469 15.0406 21.5195 14.9897 21.4816 14.9471C21.4269 14.912 21.3647 14.8904 21.3 14.8842C21.2353 14.878 21.1701 14.8874 21.1097 14.9116C20.9518 14.9463 18.4208 16.6184 13.5166 19.9279C12.8061 20.4229 12.1476 20.6621 11.565 20.6503C10.9232 20.636 9.68684 20.2855 8.76789 19.9871C7.64052 19.6224 6.7429 19.4282 6.82106 18.8029C6.86053 18.4792 7.30738 18.1476 8.16159 17.8082C13.4084 15.5234 16.9074 14.0163 18.6584 13.2868C23.6558 11.2074 24.6955 10.8474 25.3729 10.8355C25.6211 10.8303 25.8647 10.9032 26.0692 11.0439C26.2129 11.1686 26.3042 11.3428 26.325 11.5318C26.359 11.7671 26.3654 12.0056 26.344 12.2424Z" fill="#1F3281"/>
</svg>
