<?xml version="1.0" standalone="no"?>
<!DOCTYPE svg PUBLIC "-//W3C//DTD SVG 20010904//EN"
 "http://www.w3.org/TR/2001/REC-SVG-20010904/DTD/svg10.dtd">
<svg version="1.0" xmlns="http://www.w3.org/2000/svg"
 width="512.000000pt" height="512.000000pt" viewBox="0 0 512.000000 512.000000"
 preserveAspectRatio="xMidYMid meet">
<metadata>
Created by potrace 1.14, written by Peter Selinger 2001-2017
</metadata>
<g transform="translate(0.000000,512.000000) scale(0.100000,-0.100000)"
fill="#000000" stroke="none">
<path d="M2368 5115 c-2 -1 -38 -5 -80 -9 -113 -10 -277 -41 -416 -80 -605
-170 -1135 -561 -1469 -1086 -212 -333 -340 -694 -388 -1088 -13 -112 -14
-495 -1 -582 3 -19 8 -54 11 -78 9 -65 43 -227 66 -312 169 -616 576 -1159
1121 -1496 239 -147 491 -251 778 -318 106 -25 133 -30 225 -41 28 -3 61 -8
75 -11 42 -10 420 -12 500 -3 305 34 504 84 760 190 413 172 774 453 1059 827
251 329 438 785 486 1187 4 28 9 61 11 75 12 61 10 442 -3 555 -65 579 -318
1105 -731 1521 -415 419 -981 688 -1562 742 -84 8 -435 13 -442 7z"/>
</g>
</svg>
