<svg width="155" height="20" viewBox="0 0 155 20" fill="none" xmlns="http://www.w3.org/2000/svg">
<g clip-path="url(#clip0_144_20)">
<path d="M5.31231 19.9954C4.33043 20.0233 3.35485 19.8285 2.45741 19.4253C1.72297 19.0855 1.09715 18.5452 0.650519 17.8655C0.225372 17.2066 0.00366662 16.4351 0.0135732 15.6488C-0.00294768 14.8564 0.214024 14.077 0.636954 13.4093C1.12179 12.7143 1.80841 12.1884 2.60197 11.9042C3.7292 11.5013 4.9213 11.3157 6.11637 11.3569H9.89277V13.7697H6.56357C5.59688 13.7697 4.93286 13.9293 4.57148 14.2531C4.39791 14.3993 4.25907 14.583 4.16525 14.7906C4.07142 14.9982 4.025 15.2245 4.0294 15.4527C4.02181 15.6984 4.07429 15.9422 4.18223 16.1626C4.29017 16.3829 4.45024 16.573 4.64826 16.7161C5.15202 17.0503 5.74966 17.2104 6.35127 17.1722C7.00229 17.1827 7.64341 17.0106 8.20333 16.675C8.75055 16.3413 9.16941 15.83 9.39137 15.2246L10.0238 17.1448C9.75526 18.0271 9.17274 18.7777 8.38855 19.252C7.44903 19.7773 6.38556 20.0343 5.31231 19.9954ZM9.63981 19.7856V16.9852L9.37783 16.3694V11.3523C9.39875 10.9674 9.33737 10.5824 9.19784 10.2235C9.05832 9.86465 8.84391 9.54031 8.56922 9.27253C8.03619 8.77538 7.21407 8.52908 6.10283 8.52908C5.34473 8.52846 4.59141 8.65009 3.87131 8.88939C3.19764 9.09638 2.56698 9.42559 2.01021 9.86089L0.528545 6.95553C1.3812 6.36714 2.32897 5.93343 3.32924 5.67389C4.41379 5.37225 5.5335 5.21885 6.65844 5.21779C8.82069 5.21779 10.5011 5.73319 11.6997 6.76398C12.8982 7.79476 13.5005 9.40327 13.5066 11.5895V19.7765L9.63981 19.7856Z" fill="white"/>
<path d="M23.4266 19.9954C22.1637 20.0154 20.9177 19.7009 19.8128 19.0832C18.7468 18.4768 17.8657 17.5871 17.265 16.5108C16.6163 15.3192 16.2921 13.9751 16.3255 12.6157C16.2894 11.2488 16.6136 9.89669 17.265 8.69784C17.8621 7.62115 18.7443 6.73358 19.8128 6.13455C20.9195 5.52142 22.1643 5.20721 23.4266 5.22235C24.5254 5.1959 25.6107 5.47181 26.566 6.02053C27.496 6.58895 28.2259 7.4376 28.653 8.44697C29.1896 9.76469 29.4422 11.1827 29.3938 12.6066C29.4387 14.0233 29.1959 15.4343 28.6801 16.7526C28.2739 17.7659 27.5567 18.6211 26.6338 19.1927C25.6568 19.7495 24.548 20.027 23.4266 19.9954ZM24.1403 16.5838C24.774 16.5892 25.3978 16.4239 25.9472 16.1049C26.4998 15.7801 26.9518 15.3063 27.2527 14.7366C27.5928 14.0834 27.7623 13.3535 27.745 12.6157C27.7654 11.8733 27.5958 11.1381 27.2527 10.4812C26.9495 9.91321 26.498 9.43996 25.9472 9.11289C25.3978 8.79388 24.774 8.62856 24.1403 8.63398C23.4915 8.62284 22.8518 8.78827 22.2882 9.11289C21.7384 9.44124 21.2872 9.91417 20.9827 10.4812C20.6411 11.1386 20.4731 11.8737 20.4949 12.6157C20.4763 13.3531 20.6442 14.083 20.9827 14.7366C21.2849 15.3053 21.7367 15.7788 22.2882 16.1049C22.8518 16.4295 23.4915 16.5949 24.1403 16.5838ZM27.8625 19.7765V16.8438L27.9393 12.5747L27.6773 8.33751V-0.00911713H31.797V19.7765H27.8625Z" fill="white"/>
<path d="M39.4536 19.7856L33.4863 5.44127H37.7371L42.706 17.7833H40.5965L45.7461 5.44127H49.7123L43.7134 19.7856H39.4536Z" fill="white"/>
<path d="M58.0463 19.9954C56.5691 20.0288 55.1059 19.7001 53.782 19.0376C52.6098 18.448 51.6253 17.5377 50.9407 16.4105C50.2618 15.2633 49.9145 13.9473 49.9378 12.6112C49.9125 11.268 50.2548 9.9438 50.9271 8.78449C51.5811 7.68287 52.5175 6.77994 53.6375 6.17103C54.8324 5.52942 56.1691 5.20456 57.5223 5.2269C58.832 5.21208 60.1249 5.5255 61.2851 6.1391C62.3909 6.7217 63.3103 7.60893 63.9368 8.69783C64.6173 9.91152 64.9563 11.29 64.917 12.6841C64.917 12.8453 64.908 13.0277 64.8899 13.2315C64.8899 13.4322 64.8538 13.6237 64.8357 13.8016H53.2941V11.3751H62.6719L61.0864 12.0958C61.101 11.4185 60.9456 10.7485 60.6347 10.1482C60.3452 9.61141 59.9156 9.16498 59.3924 8.85747C58.8279 8.54159 58.19 8.38411 57.5449 8.40137C56.8954 8.38431 56.2532 8.54171 55.6838 8.85747C55.1511 9.16321 54.7156 9.61563 54.428 10.1619C54.1141 10.7758 53.9587 11.4598 53.9763 12.1505V12.7891C53.9607 13.512 54.1386 14.2258 54.4912 14.8552C54.8281 15.4491 55.3352 15.9262 55.9458 16.2235C56.6353 16.5469 57.3902 16.7031 58.1502 16.6796C58.8314 16.6918 59.5087 16.5742 60.1468 16.3329C60.7306 16.0912 61.2628 15.7381 61.7143 15.293L63.9097 17.6921C63.2359 18.4525 62.3939 19.0416 61.4523 19.4116C60.3645 19.825 59.2082 20.0232 58.0463 19.9954Z" fill="white"/>
<path d="M67.6592 19.7856V5.44127H71.5937V9.49144L71.0381 8.31926C71.4315 7.33611 72.1497 6.5207 73.0708 6.01139C74.121 5.45991 75.2937 5.18979 76.4768 5.2269V9.06727L76.0025 9.02623C75.864 9.02623 75.7134 9.02623 75.5508 9.02623C74.5482 8.98044 73.5671 9.32864 72.8134 9.99772C72.1177 10.6499 71.7744 11.6579 71.7744 13.0262V19.7993L67.6592 19.7856Z" fill="white"/>
<path d="M77.7461 8.95781V5.76511H87.5937V8.95781H77.7461ZM85.2447 19.9954C83.5733 19.9954 82.2679 19.5667 81.3373 18.7047C80.4068 17.8426 79.937 16.5564 79.937 14.8506V2.26682H84.0431V14.7959C84.0268 15.0493 84.0603 15.3036 84.1417 15.5439C84.2231 15.7842 84.3508 16.0059 84.5174 16.1961C84.6872 16.3657 84.8903 16.4976 85.1136 16.5832C85.3368 16.6688 85.5754 16.7063 85.8139 16.6933C86.4119 16.7105 86.9979 16.5224 87.4762 16.1596L88.5875 19.0924C88.1256 19.4113 87.6096 19.6417 87.0652 19.7719C86.4698 19.9219 85.8583 19.997 85.2447 19.9954Z" fill="white"/>
<path d="M90.9229 19.7856V5.44127H94.8574V9.49144L94.3017 8.31926C94.698 7.33791 95.4155 6.52335 96.3345 6.01139C97.3846 5.45991 98.5574 5.18979 99.7405 5.2269V9.06727L99.2662 9.02623C99.1277 9.02623 98.9771 9.02623 98.8145 9.02623C97.8209 8.98615 96.8503 9.33407 96.1041 9.99772C95.4085 10.6515 95.0606 11.661 95.0606 13.0262V19.7993L90.9229 19.7856Z" fill="white"/>
<path d="M109.119 19.9954C107.641 20.0282 106.178 19.6996 104.854 19.0376C103.682 18.448 102.698 17.5377 102.013 16.4105C101.334 15.2633 100.987 13.9473 101.01 12.6112C100.985 11.268 101.327 9.94379 101.999 8.78449C102.654 7.68329 103.59 6.78049 104.71 6.17103C105.903 5.52885 107.238 5.20394 108.59 5.2269C109.9 5.21208 111.193 5.5255 112.353 6.1391C113.46 6.72141 114.381 7.60861 115.009 8.69783C115.686 9.91274 116.023 11.2906 115.985 12.6841C115.985 12.8453 115.976 13.0277 115.958 13.2315C115.958 13.4322 115.922 13.6237 115.903 13.8016H104.371V11.3751H113.744L112.159 12.0958C112.173 11.4185 112.018 10.7485 111.707 10.1482C111.417 9.61141 110.988 9.16498 110.465 8.85747C109.9 8.54159 109.262 8.3841 108.617 8.40137C107.968 8.38497 107.326 8.54232 106.756 8.85747C106.223 9.16321 105.788 9.61562 105.5 10.1619C105.188 10.7764 105.032 11.46 105.049 12.1505V12.7891C105.033 13.512 105.211 14.2258 105.563 14.8552C105.898 15.449 106.404 15.9261 107.014 16.2235C107.703 16.5469 108.458 16.7031 109.218 16.6796C109.899 16.6918 110.576 16.5742 111.215 16.3329C111.798 16.0912 112.331 15.7381 112.782 15.293L114.977 17.6921C114.304 18.4525 113.462 19.0416 112.52 19.4116C111.434 19.8244 110.279 20.0226 109.119 19.9954Z" fill="white"/>
<path d="M119.043 19.7856V0H123.163V19.7856H119.043ZM122.449 16.8529L122.024 11.7856L128.651 5.43672H134.094L127.052 12.6112L122.449 16.8529ZM128.059 19.7856L123.745 15.1653L126.786 12.3923L134.094 19.7856H128.059Z" fill="white"/>
<g opacity="0.5">
<path d="M144.787 5.44128H139.343L131.935 12.6112H137.378L144.787 5.44128Z" fill="white"/>
<path d="M144.787 19.7856H139.343L131.935 12.6112H137.378L144.787 19.7856Z" fill="white"/>
</g>
<g opacity="0.25">
<path d="M155 5.44128H149.557L142.153 12.6112H147.592L155 5.44128Z" fill="white"/>
<path d="M155 19.7856H149.557L142.153 12.6112H147.592L155 19.7856Z" fill="white"/>
</g>
</g>
<defs>
<clipPath id="clip0_144_20">
<rect width="155" height="20" fill="white"/>
</clipPath>
</defs>
</svg>
